<mxfile host="65bd71144e">
    <diagram id="q2ZMchkgM2Wiuc5fRswP" name="第 1 页">
        <mxGraphModel dx="433" dy="515" grid="1" gridSize="10" guides="1" tooltips="1" connect="1" arrows="1" fold="1" page="1" pageScale="1" pageWidth="827" pageHeight="1169" math="0" shadow="0">
            <root>
                <mxCell id="0"/>
                <mxCell id="1" parent="0"/>
                <mxCell id="2" value="client" style="rounded=0;whiteSpace=wrap;html=1;fontSize=12;" vertex="1" parent="1">
                    <mxGeometry x="30" y="127.5" width="60" height="25" as="geometry"/>
                </mxCell>
                <mxCell id="3" value="应用进程" style="rounded=0;whiteSpace=wrap;html=1;fontSize=15;fontStyle=1;verticalAlign=top;" vertex="1" parent="1">
                    <mxGeometry x="150" y="50" width="180" height="230" as="geometry"/>
                </mxCell>
                <mxCell id="5" value="内核进程" style="rounded=0;whiteSpace=wrap;html=1;fontSize=15;fontStyle=1;verticalAlign=top;" vertex="1" parent="1">
                    <mxGeometry x="414" y="20" width="240" height="270" as="geometry"/>
                </mxCell>
                <mxCell id="18" style="edgeStyle=none;html=1;exitX=0.5;exitY=1;exitDx=0;exitDy=0;fontSize=12;elbow=vertical;" edge="1" parent="1" source="6" target="7">
                    <mxGeometry relative="1" as="geometry"/>
                </mxCell>
                <mxCell id="27" value="创建" style="edgeLabel;html=1;align=center;verticalAlign=middle;resizable=0;points=[];fontSize=12;" vertex="1" connectable="0" parent="18">
                    <mxGeometry x="0.4215" y="-1" relative="1" as="geometry">
                        <mxPoint y="-16" as="offset"/>
                    </mxGeometry>
                </mxCell>
                <mxCell id="19" style="edgeStyle=none;html=1;exitX=1;exitY=0.5;exitDx=0;exitDy=0;entryX=0;entryY=0.5;entryDx=0;entryDy=0;fontSize=12;elbow=vertical;" edge="1" parent="1" source="6" target="8">
                    <mxGeometry relative="1" as="geometry"/>
                </mxCell>
                <mxCell id="24" value="注册 Proactor&lt;br&gt;和 Handler" style="edgeLabel;html=1;align=center;verticalAlign=middle;resizable=0;points=[];fontSize=12;" vertex="1" connectable="0" parent="19">
                    <mxGeometry x="0.2682" relative="1" as="geometry">
                        <mxPoint x="-12" as="offset"/>
                    </mxGeometry>
                </mxCell>
                <mxCell id="21" style="edgeStyle=none;html=1;exitX=1;exitY=1;exitDx=0;exitDy=0;fontSize=12;elbow=vertical;" edge="1" parent="1" source="6" target="9">
                    <mxGeometry relative="1" as="geometry"/>
                </mxCell>
                <mxCell id="25" value="创建" style="edgeLabel;html=1;align=center;verticalAlign=middle;resizable=0;points=[];fontSize=12;" vertex="1" connectable="0" parent="21">
                    <mxGeometry x="-0.1182" y="2" relative="1" as="geometry">
                        <mxPoint as="offset"/>
                    </mxGeometry>
                </mxCell>
                <mxCell id="6" value="Proactor Initiator" style="ellipse;whiteSpace=wrap;html=1;fontSize=12;" vertex="1" parent="1">
                    <mxGeometry x="180" y="120" width="120" height="40" as="geometry"/>
                </mxCell>
                <mxCell id="7" value="Handler" style="ellipse;whiteSpace=wrap;html=1;fontSize=12;" vertex="1" parent="1">
                    <mxGeometry x="195" y="225" width="90" height="40" as="geometry"/>
                </mxCell>
                <mxCell id="16" style="edgeStyle=none;html=1;exitX=0.5;exitY=1;exitDx=0;exitDy=0;fontSize=12;elbow=vertical;" edge="1" parent="1" source="8" target="9">
                    <mxGeometry relative="1" as="geometry"/>
                </mxCell>
                <mxCell id="8" value="Asynchronous Operation Processor" style="ellipse;whiteSpace=wrap;html=1;" vertex="1" parent="1">
                    <mxGeometry x="429" y="90" width="210" height="100" as="geometry"/>
                </mxCell>
                <mxCell id="17" style="edgeStyle=none;html=1;exitX=0;exitY=0.5;exitDx=0;exitDy=0;fontSize=12;elbow=vertical;" edge="1" parent="1" source="9" target="7">
                    <mxGeometry relative="1" as="geometry"/>
                </mxCell>
                <mxCell id="26" value="回调" style="edgeLabel;html=1;align=center;verticalAlign=middle;resizable=0;points=[];fontSize=12;" vertex="1" connectable="0" parent="17">
                    <mxGeometry x="0.1305" y="-1" relative="1" as="geometry">
                        <mxPoint as="offset"/>
                    </mxGeometry>
                </mxCell>
                <mxCell id="9" value="Proactor" style="ellipse;whiteSpace=wrap;html=1;" vertex="1" parent="1">
                    <mxGeometry x="477.75" y="220" width="112.5" height="50" as="geometry"/>
                </mxCell>
                <mxCell id="11" value="异步 I/O 操作" style="rounded=0;whiteSpace=wrap;html=1;fontSize=12;fontStyle=1" vertex="1" parent="1">
                    <mxGeometry x="494" y="155" width="80" height="20" as="geometry"/>
                </mxCell>
                <mxCell id="14" value="" style="shape=flexArrow;endArrow=classic;html=1;fontSize=15;elbow=vertical;entryX=0.626;entryY=0.032;entryDx=0;entryDy=0;entryPerimeter=0;" edge="1" parent="1" target="8">
                    <mxGeometry width="50" height="50" relative="1" as="geometry">
                        <mxPoint x="509" y="90" as="sourcePoint"/>
                        <mxPoint x="558.5" y="30" as="targetPoint"/>
                        <Array as="points">
                            <mxPoint x="509" y="60"/>
                            <mxPoint x="530" y="60"/>
                            <mxPoint x="560" y="60"/>
                        </Array>
                    </mxGeometry>
                </mxCell>
                <mxCell id="15" value="处理注册请求&lt;br&gt;完成 I/O 操作" style="edgeLabel;html=1;align=center;verticalAlign=middle;resizable=0;points=[];fontSize=12;" vertex="1" connectable="0" parent="14">
                    <mxGeometry x="0.0325" y="-11" relative="1" as="geometry">
                        <mxPoint x="72" y="-1" as="offset"/>
                    </mxGeometry>
                </mxCell>
                <mxCell id="22" style="edgeStyle=none;html=1;exitX=1;exitY=0.5;exitDx=0;exitDy=0;entryX=0;entryY=0.5;entryDx=0;entryDy=0;fontSize=12;elbow=vertical;" edge="1" parent="1" source="2" target="6">
                    <mxGeometry relative="1" as="geometry"/>
                </mxCell>
                <mxCell id="23" value="请求" style="edgeLabel;html=1;align=center;verticalAlign=middle;resizable=0;points=[];fontSize=12;" vertex="1" connectable="0" parent="22">
                    <mxGeometry x="-0.3156" relative="1" as="geometry">
                        <mxPoint as="offset"/>
                    </mxGeometry>
                </mxCell>
                <mxCell id="29" value="通知" style="edgeLabel;html=1;align=center;verticalAlign=middle;resizable=0;points=[];fontSize=12;" vertex="1" connectable="0" parent="1">
                    <mxGeometry x="540.0031109560066" y="200.00476615135062" as="geometry">
                        <mxPoint x="7" y="2" as="offset"/>
                    </mxGeometry>
                </mxCell>
            </root>
        </mxGraphModel>
    </diagram>
</mxfile>